<?xml version="1.0" encoding="iso-8859-1"?>
<!-- Generator: Adobe Illustrator 22.1.0, SVG Export Plug-In . SVG Version: 6.00 Build 0)  -->
<svg xmlns="http://www.w3.org/2000/svg" xmlns:xlink="http://www.w3.org/1999/xlink" version="1.1" id="Layer_1_1_" x="0px" y="0px" viewBox="0 0 64 64" style="enable-background:new 0 0 64 64;" xml:space="preserve" width="512" height="512">
<g>
	<g>
		<path style="fill:#69D6F4;" d="M59,56.83c-0.32,0.1-0.7,0.17-1.17,0.17c-2.59,0-2.59-2-5.18-2c-2.58,0-2.58,2-5.17,2    c-2.58,0-2.58-2-5.16-2c-2.59,0-2.59,2-5.17,2c-2.2,0-2.52-1.46-4.18-1.88C32.69,55.04,32.36,55,31.98,55c-2.58,0-2.58,2-5.16,2    c-2.59,0-2.59-2-5.17-2c-2.58,0-2.58,2-5.16,2s-2.58-2-5.17-2c-2.58,0-2.58,2-5.16,2C3.58,57,3.58,55,1,55v8h62v-8    C60.88,55,60.49,56.34,59,56.83z"/>
		<path style="fill:#FCD770;" d="M19.27,5.29C19.98,6.15,22,8.9,22,13s-2.02,6.85-2.73,7.71C18.63,20.26,17.84,20,17,20    s-1.63,0.26-2.27,0.71C14.02,19.85,12,17.1,12,13s2.02-6.85,2.73-7.71C15.37,5.74,16.16,6,17,6S18.63,5.74,19.27,5.29z"/>
		<path style="fill:#FFEAA7;" d="M20.93,2.73C25.07,4.3,28,8.31,28,13c0,3.47-1.61,6.57-4.12,8.58c-0.88,0.71-1.87,1.29-2.95,1.69    c-0.19-1.06-0.8-1.97-1.66-2.56C19.98,19.85,22,17.1,22,13s-2.02-6.85-2.73-7.71C20.13,4.7,20.74,3.79,20.93,2.73z"/>
		<path style="fill:#FFEAA7;" d="M13.07,2.73c0.19,1.06,0.8,1.97,1.66,2.56C14.02,6.15,12,8.9,12,13s2.02,6.85,2.73,7.71    c-0.86,0.59-1.47,1.5-1.66,2.56C8.93,21.7,6,17.69,6,13S8.93,4.3,13.07,2.73z"/>
		<path style="fill:#FF826E;" d="M19.27,5.29C18.63,5.74,17.84,6,17,6s-1.63-0.26-2.27-0.71c-0.86-0.59-1.47-1.5-1.66-2.56    C14.29,2.26,15.61,2,17,2s2.71,0.26,3.93,0.73C20.74,3.79,20.13,4.7,19.27,5.29z"/>
		<path style="fill:#FF826E;" d="M20.93,23.27c-0.75,0.29-1.54,0.5-2.35,0.61C18.06,23.96,17.54,24,17,24    c-1.39,0-2.71-0.26-3.93-0.73c0.19-1.06,0.8-1.97,1.66-2.56C15.37,20.26,16.16,20,17,20s1.63,0.26,2.27,0.71    C20.13,21.3,20.74,22.21,20.93,23.27z"/>
		<path style="fill:#B27946;" d="M54,14.16V22c0-2.21-1.79-4-4-4v-1.88c0-0.58-0.24-1.12-0.62-1.5C49,14.24,48.46,14,47.88,14    c-0.56,0-1.1,0.22-1.5,0.62l-0.79,0.79C45.21,15.79,44.7,16,44.17,16H38c-1.1,0-2,0.9-2,2c-2.21,0-4,1.79-4,4v-6.78    c0-2.82,1.14-5.38,2.99-7.23C36.84,6.14,39.4,5,42.22,5c3.58,0,6.91,1.88,8.76,4.96L51,10C52.79,10.6,54,12.27,54,14.16z"/>
		<path style="fill:#F0D0B4;" d="M57.83,57c-2.59,0-2.59-2-5.18-2c-2.58,0-2.58,2-5.17,2c-2.58,0-2.58-2-5.16-2    c-2.59,0-2.59,2-5.17,2c-2.2,0-2.52-1.46-4.18-1.88L33,55V42l-5.5,1.83C27.17,43.94,26.82,44,26.48,44    c-1.46,0-2.74-0.98-3.12-2.39l-4.78-17.72v-0.01c0.81-0.11,1.6-0.32,2.35-0.61c1.08-0.4,2.07-0.98,2.95-1.69L28,36l11-3v-3    l0.09-0.19C42.04,30.95,42.52,31,43,31c1.46,0,2.8-0.44,3.91-1.19L47,30v3l8.97,2.24c1.78,0.45,3.03,2.05,3.03,3.88v17.71    C58.68,56.93,58.3,57,57.83,57z"/>
		<path style="fill:#F0D0B4;" d="M54,22c0,2.21-1.79,4-4,4l-0.27-0.07C49.91,25.32,50,24.67,50,24v-6C52.21,18,54,19.79,54,22z"/>
		<path style="fill:#F0D0B4;" d="M50,18v6c0,0.67-0.09,1.32-0.27,1.93c-0.46,1.6-1.47,2.97-2.82,3.88C45.8,30.56,44.46,31,43,31    c-0.48,0-0.96-0.05-3.91-1.19c-0.38-0.26-0.72-0.54-1.04-0.86c-0.83-0.83-1.45-1.86-1.78-3.02C36.09,25.32,36,24.67,36,24v-6    c0-1.1,0.9-2,2-2h6.17c0.53,0,1.04-0.21,1.42-0.59l0.79-0.79c0.4-0.4,0.94-0.62,1.5-0.62c0.58,0,1.12,0.24,1.5,0.62    C49.76,15,50,15.54,50,16.12V18z"/>
		<path style="fill:#F0D0B4;" d="M36,24c0,0.67,0.09,1.32,0.27,1.93L36,26c-2.21,0-4-1.79-4-4s1.79-4,4-4V24z"/>
	</g>
	<g>
		<path d="M60,55.057V39.123c0-2.299-1.558-4.293-3.788-4.851L48,32.219v-1.984c1.069-0.859,1.91-1.986,2.427-3.278    C52.981,26.736,55,24.611,55,22v-7.838c0-2.196-1.323-4.151-3.329-4.979C49.624,5.979,46.03,4,42.216,4    C36.031,4,31,9.031,31,15.216V22c0,2.611,2.019,4.736,4.573,4.957c0.516,1.293,1.358,2.419,2.427,3.278v2.001l-9.31,2.539    l-3.677-12.869C27.454,19.709,29,16.535,29,13c0-6.617-5.383-12-12-12S5,6.383,5,13s5.383,12,12,12    c0.283,0,0.56-0.023,0.838-0.042l4.553,16.912c0.497,1.843,2.177,3.13,4.085,3.13c0.456,0,0.906-0.073,1.338-0.217L32,43.387    v10.614c-0.005,0-0.01-0.001-0.016-0.001c-1.634,0-2.5,0.67-3.196,1.209C28.195,55.668,27.767,56,26.817,56    s-1.378-0.332-1.971-0.791C24.15,54.67,23.285,54,21.651,54s-2.5,0.67-3.195,1.209C17.863,55.668,17.436,56,16.486,56    c-0.948,0-1.375-0.332-1.968-0.79C13.823,54.671,12.958,54,11.325,54c-1.634,0-2.5,0.67-3.195,1.209    C7.537,55.668,7.109,56,6.16,56c-0.948,0-1.376-0.332-1.968-0.791C3.497,54.671,2.632,54,1,54v2c0.948,0,1.376,0.332,1.968,0.791    C3.663,57.329,4.528,58,6.16,58c1.633,0,2.499-0.67,3.194-1.209C9.947,56.332,10.376,56,11.325,56    c0.948,0,1.376,0.332,1.969,0.791C13.989,57.33,14.854,58,16.486,58c1.633,0,2.499-0.67,3.194-1.209    C20.273,56.332,20.702,56,21.651,56s1.378,0.332,1.971,0.791C24.318,57.33,25.184,58,26.817,58c1.633,0,2.499-0.67,3.195-1.209    C30.605,56.332,31.034,56,31.984,56c0.949,0,1.378,0.332,1.971,0.791C34.651,57.33,35.517,58,37.15,58s2.5-0.67,3.196-1.209    C40.939,56.332,41.368,56,42.318,56c0.949,0,1.378,0.332,1.971,0.791C44.985,57.33,45.851,58,47.484,58s2.5-0.67,3.196-1.209    C51.273,56.332,51.702,56,52.653,56c0.952,0,1.381,0.332,1.976,0.791C55.325,57.33,56.192,58,57.827,58s2.501-0.67,3.197-1.209    C61.619,56.332,62.048,56,63,56v-2C61.515,54,60.665,54.552,60,55.057z M50.957,24.829C50.985,24.557,51,24.28,51,24v-4.816    c1.161,0.414,2,1.514,2,2.816C53,23.318,52.14,24.427,50.957,24.829z M42.216,6c3.219,0,6.247,1.714,7.931,4.521l0.19,0.312    l0.347,0.116C52.069,11.41,53,12.702,53,14.162v3.863c-0.584-0.442-1.257-0.773-2-0.924v-0.98C51,14.4,49.6,13,47.879,13    c-0.822,0-1.626,0.333-2.207,0.914l-0.793,0.793C44.692,14.893,44.435,15,44.172,15H38c-1.333,0-2.453,0.88-2.842,2.085    c-0.803,0.138-1.533,0.468-2.158,0.94v-2.81C33,10.134,37.134,6,42.216,6z M33,22c0-1.302,0.839-2.402,2-2.816V24    c0,0.28,0.015,0.557,0.043,0.829C33.86,24.427,33,23.318,33,22z M37,24v-6c0-0.551,0.448-1,1-1h6.172    c0.801,0,1.555-0.312,2.121-0.879l0.793-0.793C47.295,15.12,47.584,15,47.879,15C48.497,15,49,15.503,49,16.121V24    c0,3.309-2.691,6-6,6S37,27.309,37,24z M27,13c0,3.885-2.232,7.252-5.477,8.907c-0.23-0.496-0.532-0.945-0.901-1.334    C21.598,19.183,23,16.569,23,13s-1.402-6.183-2.378-7.573c0.369-0.389,0.671-0.837,0.901-1.334C24.768,5.748,27,9.115,27,13z     M15.02,19.425C14.218,18.273,13,16.03,13,13s1.218-5.273,2.02-6.425C15.632,6.84,16.298,7,17,7c0.702,0,1.367-0.16,1.979-0.425    C19.782,7.727,21,9.97,21,13c0,3.031-1.218,5.275-2.02,6.425C18.368,19.16,17.702,19,17,19S15.632,19.16,15.02,19.425z     M19.66,3.37C19.157,4.347,18.148,5,17,5c-1.148,0-2.157-0.653-2.66-1.63C15.189,3.136,16.078,3,17,3    C17.922,3,18.811,3.136,19.66,3.37z M7,13c0-3.885,2.232-7.252,5.477-8.907c0.23,0.496,0.532,0.945,0.901,1.334    C12.402,6.817,11,9.431,11,13s1.402,6.183,2.378,7.573c-0.369,0.389-0.671,0.838-0.901,1.334C9.232,20.252,7,16.885,7,13z     M14.34,22.63C14.843,21.653,15.852,21,17,21c1.148,0,2.157,0.653,2.66,1.63C18.812,22.864,17.922,23,17,23    C16.078,23,15.189,22.864,14.34,22.63z M55.852,55.209c-0.473-0.366-1.033-0.789-1.852-1.024V40h-2v14.042    c-1.222,0.151-1.947,0.706-2.544,1.167C48.863,55.668,48.435,56,47.484,56c-0.949,0-1.378-0.332-1.971-0.791    C44.817,54.67,43.952,54,42.318,54s-2.5,0.67-3.196,1.209C38.529,55.668,38.101,56,37.15,56c-0.949,0-1.378-0.332-1.971-0.791    c-0.332-0.257-0.706-0.542-1.18-0.772V40.613l-6.819,2.272C26.953,42.961,26.716,43,26.476,43c-1.006,0-1.892-0.679-2.153-1.65    l-4.496-16.7c1.246-0.302,2.413-0.798,3.474-1.456l4.009,14.031L40,33.764v-2.353C40.927,31.788,41.939,32,43,32    s2.073-0.212,3-0.589v2.37l9.728,2.432C57.065,36.547,58,37.744,58,39.123v16.861C57.939,55.987,57.893,56,57.827,56    C56.875,56,56.446,55.668,55.852,55.209z"/>
		<path d="M57.827,61c-0.952,0-1.381-0.332-1.976-0.791C55.155,59.67,54.288,59,52.653,59s-2.501,0.67-3.197,1.209    C48.863,60.668,48.435,61,47.484,61c-0.949,0-1.378-0.332-1.971-0.791C44.817,59.67,43.952,59,42.318,59s-2.5,0.67-3.196,1.209    C38.529,60.668,38.101,61,37.15,61c-0.949,0-1.378-0.332-1.971-0.791C34.483,59.67,33.618,59,31.984,59s-2.5,0.67-3.196,1.209    C28.195,60.668,27.767,61,26.817,61s-1.378-0.332-1.971-0.791C24.15,59.67,23.285,59,21.651,59s-2.5,0.67-3.195,1.209    C17.863,60.668,17.436,61,16.486,61c-0.948,0-1.375-0.332-1.968-0.79C13.823,59.671,12.958,59,11.325,59    c-1.634,0-2.5,0.67-3.195,1.209C7.537,60.668,7.109,61,6.16,61c-0.948,0-1.376-0.332-1.968-0.791C3.497,59.671,2.632,59,1,59v2    c0.948,0,1.376,0.332,1.968,0.791C3.663,62.329,4.528,63,6.16,63c1.633,0,2.499-0.67,3.194-1.209    C9.947,61.332,10.376,61,11.325,61c0.948,0,1.376,0.332,1.969,0.791C13.989,62.33,14.854,63,16.486,63    c1.633,0,2.499-0.67,3.194-1.209C20.273,61.332,20.702,61,21.651,61s1.378,0.332,1.971,0.791C24.318,62.33,25.184,63,26.817,63    c1.633,0,2.499-0.67,3.195-1.209C30.605,61.332,31.034,61,31.984,61c0.949,0,1.378,0.332,1.971,0.791    C34.651,62.33,35.517,63,37.15,63s2.5-0.67,3.196-1.209C40.939,61.332,41.368,61,42.318,61c0.949,0,1.378,0.332,1.971,0.791    C44.985,62.33,45.851,63,47.484,63s2.5-0.67,3.196-1.209C51.273,61.332,51.702,61,52.653,61c0.952,0,1.381,0.332,1.976,0.791    C55.325,62.33,56.192,63,57.827,63s2.501-0.67,3.197-1.209C61.619,61.332,62.048,61,63,61v-2c-1.635,0-2.502,0.67-3.198,1.209    C59.207,60.668,58.778,61,57.827,61z"/>
		<rect x="48" y="43" width="2" height="2"/>
		<rect x="36" y="43" width="2" height="2"/>
	</g>
</g>
</svg>
