<svg height="438pt" viewBox="0 0 438.85938 438" width="438pt" xmlns="http://www.w3.org/2000/svg"><path d="m427.839844 354.570312-93.472656-70.105468-5.648438 5.648437-28.34375-28.34375c45.980469-64.617187 40.191406-155.015625-17.71875-212.921875-64.566406-64.554687-169.609375-64.5625-234.15625 0-31.277344 31.269532-48.5 72.847656-48.5 117.070313 0 44.234375 17.222656 85.8125 48.496094 117.082031 31.273437 31.277344 72.851562 48.5 117.078125 48.5 34.890625 0 68.042969-10.867188 95.875-30.742188l28.3125 28.308594-5.648438 5.648438 70.105469 93.480468c4.789062 6.386719 12.105469 10.375 20.074219 10.9375.65625.046876 1.3125.070313 1.964843.070313 7.277344 0 14.285157-2.871094 19.472657-8.058594l35.058593-35.066406c5.652344-5.648437 8.566407-13.460937 8-21.433594-.570312-7.964843-4.5625-15.289062-10.949218-20.074219zm-366.417969-84.5c-27.816406-27.820312-43.136719-64.800781-43.136719-104.140624 0-39.347657 15.320313-76.332032 43.144532-104.152344 28.710937-28.714844 66.425781-43.070313 104.144531-43.070313s75.4375 14.355469 104.152343 43.070313c57.425782 57.425781 57.425782 150.867187 0 208.292968-27.820312 27.824219-64.808593 43.144532-104.152343 43.144532s-76.328125-15.320313-104.152344-43.144532zm228.253906 6.859376 26.109375 26.105468-13.097656 13.097656-26.113281-26.105468zm128.1875 106.222656-35.054687 35.0625c-1.929688 1.917968-4.4375 2.890625-7.214844 2.679687-2.71875-.1875-5.117188-1.5-6.75-3.671875l-60.589844-80.792968 27.828125-27.824219 80.789063 60.589843c2.179687 1.636719 3.484375 4.035157 3.675781 6.75.195313 2.714844-.757813 5.277344-2.683594 7.207032zm0 0"/><path d="m276.667969 165.929688-2.574219-4.527344c-5.949219-10.4375-13.617188-19.847656-22.78125-27.964844-47.28125-41.847656-124.195312-41.847656-171.46875 0-9.167969 8.117188-16.835938 17.527344-22.785156 27.964844l-2.578125 4.527344 2.582031 4.527343c5.957031 10.453125 13.621094 19.855469 22.78125 27.960938 23.632812 20.921875 54.683594 31.375 85.730469 31.375 31.050781 0 62.097656-10.453125 85.734375-31.375 9.160156-8.105469 16.824218-17.507813 22.78125-27.960938zm-37.476563 18.792968c-40.597656 35.929688-106.644531 35.929688-147.230468 0-6.304688-5.578125-11.757813-11.882812-16.257813-18.792968 4.496094-6.910157 9.949219-13.214844 16.261719-18.796876 40.597656-35.945312 106.644531-35.9375 147.226562 0 6.308594 5.582032 11.757813 11.886719 16.253906 18.796876-4.5 6.910156-9.949218 13.214843-16.253906 18.792968zm0 0"/><path d="m165.574219 129.355469c-20.164063 0-36.570313 16.402343-36.570313 36.574219 0 20.167968 16.40625 36.570312 36.570313 36.570312 20.167969 0 36.574219-16.402344 36.574219-36.570312 0-20.171876-16.40625-36.574219-36.574219-36.574219zm0 54.859375c-10.082031 0-18.285157-8.207032-18.285157-18.285156 0-10.082032 8.203126-18.285157 18.285157-18.285157 10.085937 0 18.285156 8.203125 18.285156 18.285157 0 10.078124-8.199219 18.285156-18.285156 18.285156zm0 0"/></svg>