<svg height="432pt" viewBox="-11 0 432 432.25457" width="432pt" xmlns="http://www.w3.org/2000/svg"><path d="m312.273438 180.820312c4.691406 3.460938 6.800781 9.675782 4.773437 15.46875-.582031 1.671876-14.800781 41.21875-54.113281 59.230469-26.820313 12.300781-58.132813 11.566407-93.066406-2.160156-7.058594-2.78125-10.472657-10.691406-7.714844-17.699219 2.761718-7.019531 10.679687-10.472656 17.699218-7.71875 27.648438 10.867188 51.679688 11.839844 71.449219 2.875 28.726563-13.015625 39.878907-43.292968 39.992188-43.601562 2.539062-7.066406 10.339843-10.792969 17.421875-8.28125 1.304687.46875 2.5 1.109375 3.558594 1.886718zm0 0" fill="#ffd578"/><path d="m312.273438 180.820312-4.050782 5.496094c1.734375 1.269532 2.769532 3.335938 2.765625 5.457032 0 .738281-.121093 1.488281-.390625 2.269531-.132812.402343-3.640625 10.214843-11.699218 21.847656-8.066407 11.667969-20.613282 25.09375-38.808594 33.425781-11.757813 5.382813-24.394532 8.074219-38.070313 8.082032-15.269531 0-31.859375-3.410157-49.660156-10.394532-2.730469-1.074218-4.324219-3.628906-4.335937-6.339844 0-.835937.152343-1.671874.476562-2.488281l.007812-.019531c1.050782-2.707031 3.640626-4.335938 6.359376-4.347656.839843.003906 1.648437.152344 2.460937.472656l.027344.011719c15.777343 6.195312 30.679687 9.410156 44.621093 9.410156 11.46875.007813 22.28125-2.203125 32.140626-6.671875 15.894531-7.21875 26.667968-19.011719 33.523437-28.898438 6.851563-9.90625 9.871094-18.066406 10.054687-18.554687l.023438-.058594c.984375-2.789062 3.671875-4.550781 6.453125-4.550781.765625 0 1.492187.121094 2.214844.382812l.027343.011719c.6875.246094 1.285157.566407 1.8125.957031l8.09375-11c-1.59375-1.171874-3.382812-2.128906-5.308593-2.816406l.027343.011719c-2.28125-.828125-4.613281-1.199219-6.863281-1.195313-8.4375 0-16.289062 5.234376-19.304687 13.585938l.019531-.058594s-.132813.363282-.460937 1.144532c-1.140626 2.710937-4.484376 9.921874-10.390626 17.632812-5.914062 7.730469-14.324218 15.890625-25.554687 20.972656-7.996094 3.613282-16.769531 5.449219-26.507813 5.457032-11.824218 0-25.074218-2.746094-39.625-8.46875l.027344.011718c-2.46875-.984375-5.03125-1.4375-7.511718-1.4375-8.183594-.007812-15.890626 4.941406-19.070313 13l.007813-.019531c-.972657 2.457031-1.4375 5.015625-1.4375 7.523437-.011719 8.152344 4.925781 15.863282 12.992187 19.046876 19.078125 7.488281 37.347656 11.335937 54.660156 11.335937 15.480469.007813 30.179688-3.089844 43.753907-9.324219 21.117187-9.683594 35.335937-25.035156 44.351562-38.066406 9.027344-13.058594 12.917969-23.855469 13.371094-25.136719.769531-2.210937 1.144531-4.5 1.144531-6.746093-.007813-6.488282-3.085937-12.585938-8.320313-16.449219zm0 0" fill="#54596e"/><path d="m107.160156 353.65625-27.09375-8.523438c-9.605468-3.019531-14.199218-13.9375-9.636718-22.917968l62.664062-103.574219c3.601562-7.101563 11.816406-10.554687 19.414062-8.160156l27.09375 8.519531c9.605469 3.019531 14.199219 13.941406 9.640626 22.921875l-62.667969 103.574219c-3.601563 7.101562-11.8125 10.550781-19.414063 8.160156zm0 0" fill="#ff927d"/><path d="m107.160156 353.65625 2.046875-6.511719-27.089843-8.519531c-4.117188-1.28125-6.621094-5.0625-6.636719-9.046875 0-1.433594.320312-2.867187 1.03125-4.265625l-6.082031-3.09375 5.839843 3.53125 62.667969-103.574219.246094-.445312c1.640625-3.246094 4.953125-5.179688 8.429687-5.183594.953125.003906 1.890625.136719 2.8125.4375l.035157.007813 27.09375 8.519531c4.117187 1.28125 6.617187 5.054687 6.632812 9.039062-.003906 1.425781-.316406 2.855469-1.039062 4.292969l6.09375 3.078125-5.839844-3.535156-62.667969 103.574219-.246094.449218c-1.636719 3.238282-4.949219 5.164063-8.433593 5.171875-.933594-.003906-1.898438-.144531-2.867188-.445312l.019531.007812-2.046875 6.511719-2.023437 6.515625c2.269531.707031 4.601562 1.058594 6.917969 1.054687 8.515624.007813 16.578124-4.71875 20.605468-12.644531l-6.085937-3.085937 5.839843 3.53125 62.667969-103.574219.253907-.457031c1.691406-3.34375 2.507812-6.941406 2.503906-10.445313.015625-9.710937-6.183594-18.910156-16.191406-22.066406l-27.089844-8.519531.035156.011718c-2.320312-.746093-4.683594-1.085937-6.980469-1.085937-8.519531 0-16.582031 4.730469-20.605469 12.660156l6.085938 3.089844-5.839844-3.539063-62.664062 103.574219-.242188.4375c-1.710937 3.347657-2.523437 6.949219-2.519531 10.460938-.015625 9.710937 6.183594 18.910156 16.191406 22.070312l27.09375 8.519531.023438.007813zm0 0" fill="#54596e"/><path d="m239.0625 370.816406h-232.109375v-81.921875h247.421875c14.394531 0 23.367188 15.613281 16.113281 28.046875zm0 0" fill="#61c5a8"/><path d="m239.0625 370.816406v-6.828125h-225.28125v-68.269531h240.59375c3.550781.015625 6.363281 1.386719 8.496094 3.585938 2.113281 2.195312 3.363281 5.226562 3.359375 8.269531-.007813 1.957031-.484375 3.933593-1.644531 5.9375l-31.421876 53.863281 5.898438 3.441406v-6.828125 6.828125l5.894531 3.433594 31.425781-53.871094c2.375-4.066406 3.503907-8.507812 3.496094-12.804687-.007812-6.699219-2.648437-13.007813-7.152344-17.714844-4.480468-4.710937-11.011718-7.808594-18.351562-7.789063h-247.421875c-1.796875 0-3.554687.726563-4.828125 1.996094-1.269531 1.273438-1.996094 3.03125-1.996094 4.828125v81.921875c0 1.824219.707032 3.535156 2 4.828125 1.289063 1.289063 3.003906 1.996094 4.824219 1.996094h232.109375c2.433594 0 4.667969-1.28125 5.894531-3.386719zm0 0" fill="#54596e"/><path d="m409.726562 363.988281c-22.621093 0-40.960937-18.339843-40.960937-40.960937 0 22.621094-18.339844 40.960937-40.957031 40.960937-22.621094 0-40.960938-18.339843-40.960938-40.960937 0 22.621094-18.339844 40.960937-40.960937 40.960937-22.621094 0-40.960938-18.339843-40.960938-40.960937 0 22.621094-18.339843 40.960937-40.957031 40.960937-22.621094 0-40.960938-18.339843-40.960938-40.960937 0 22.621094-18.339843 40.960937-40.960937 40.960937s-40.960937-18.339843-40.960937-40.960937c0 22.621094-18.339844 40.960937-40.957032 40.960937v68.265625h409.597656zm0 0" fill="#55a6ff"/><path d="m409.726562 357.160156c-9.445312-.003906-17.9375-3.8125-24.136718-10-6.1875-6.199218-9.992188-14.6875-9.996094-24.132812h-13.652344c-.003906 9.445312-3.8125 17.933594-10 24.132812-6.195312 6.1875-14.6875 9.996094-24.132812 10-9.449219-.003906-17.9375-3.8125-24.136719-10-6.1875-6.199218-9.996094-14.6875-9.996094-24.132812h-13.65625c-.003906 9.445312-3.808593 17.933594-9.996093 24.132812-6.199219 6.1875-14.691407 9.996094-24.136719 10-9.445313-.003906-17.9375-3.8125-24.136719-10-6.1875-6.199218-9.992188-14.6875-9.996094-24.132812h-13.652344c-.003906 9.445312-3.8125 17.933594-10 24.132812-6.195312 6.1875-14.6875 9.996094-24.132812 10-9.449219-.003906-17.9375-3.8125-24.136719-10-6.1875-6.199218-9.996093-14.6875-10-24.132812h-13.652343c-.003907 9.445312-3.808594 17.933594-9.996094 24.132812-6.199219 6.1875-14.691406 9.996094-24.136719 10-9.445313-.003906-17.9375-3.8125-24.136719-10-6.1875-6.199218-9.992187-14.6875-9.996094-24.132812h-13.652343c-.003907 9.445312-3.8125 17.933594-10 24.132812-6.199219 6.1875-14.6875 9.996094-24.132813 10v13.65625c26.390625-.007812 47.78125-21.394531 47.785156-47.789062h-13.652343c.003906 26.394531 21.390625 47.78125 47.785156 47.785156 26.394531-.003906 47.78125-21.390625 47.785156-47.785156h-13.652343c.007812 26.394531 21.394531 47.78125 47.789062 47.785156 26.390625-.003906 47.78125-21.390625 47.785156-47.785156h-13.652344c.003907 26.394531 21.390626 47.78125 47.785157 47.785156 26.394531-.003906 47.78125-21.390625 47.789062-47.785156h-13.65625c.007813 26.394531 21.394531 47.78125 47.789063 47.785156 26.390625-.003906 47.78125-21.390625 47.785156-47.785156h-13.652344c.003906 26.394531 21.390625 47.78125 47.785156 47.785156zm0 0" fill="#54596e"/><path d="m252.714844 179.667969c0 18.851562-15.28125 34.132812-34.132813 34.132812-18.851562 0-34.132812-15.28125-34.132812-34.132812 0-18.851563 15.28125-34.132813 34.132812-34.132813 18.851563 0 34.132813 15.28125 34.132813 34.132813zm0 0" fill="#ffd578"/><path d="m252.714844 179.667969h6.824218c0-22.628907-18.332031-40.957031-40.957031-40.960938-22.625.003907-40.957031 18.332031-40.960937 40.960938.003906 22.625 18.335937 40.953125 40.960937 40.957031 22.625-.003906 40.957031-18.332031 40.957031-40.957031h-13.652343c-.003907 7.5625-3.046875 14.347656-7.996094 19.304687-4.964844 4.953125-11.746094 7.996094-19.308594 8-7.566406-.003906-14.347656-3.042968-19.3125-8-4.949219-4.957031-7.992187-11.742187-7.996093-19.304687.003906-7.566407 3.046874-14.351563 7.996093-19.308594 4.964844-4.953125 11.746094-7.996094 19.3125-8 7.5625.003906 14.34375 3.042969 19.308594 8 4.949219 4.957031 7.992187 11.742187 7.996094 19.308594zm0 0" fill="#54596e"/><path d="m112.453125 42.214844 42.972656 38.992187c9.777344 8.867188 24.882813 8.136719 33.746094-1.636719 8.867187-9.777343 8.136719-24.886718-1.640625-33.753906l-42.972656-38.988281zm0 0" fill="#8065c4"/><path d="m112.453125 42.214844-4.585937 5.054687 42.972656 38.992188c5.863281 5.324219 13.292968 7.976562 20.632812 7.96875 8.34375.007812 16.707032-3.414063 22.753906-10.070313 5.328126-5.871094 7.976563-13.300781 7.96875-20.648437.011719-8.339844-3.40625-16.714844-10.078124-22.757813l-42.96875-38.980468c-2.792969-2.535157-7.109376-2.328126-9.644532.464843l-32.105468 35.386719c-1.207032 1.328125-1.851563 3.125-1.761719 4.921875.085937 1.796875.898437 3.511719 2.230469 4.722656l4.585937-5.054687 5.054687 4.585937 27.519532-30.332031 37.917968 34.402344c3.722657 3.375 5.589844 7.964844 5.597657 12.640625-.007813 4.117187-1.449219 8.179687-4.425781 11.472656-3.382813 3.714844-7.980469 5.585937-12.644532 5.59375-4.109375-.007813-8.171875-1.449219-11.460937-4.429687l-42.972657-38.992188-4.585937 5.058594 5.054687 4.585937zm0 0" fill="#54596e"/><path d="m332.792969 200.65625-131.445313-119.265625c-2.792968-2.53125-7.109375-2.320313-9.644531.464844-2.535156 2.796875-2.324219 7.113281.46875 9.644531l131.445313 119.265625c2.792968 2.535156 7.113281 2.324219 9.644531-.464844 2.535156-2.792969 2.324219-7.109375-.46875-9.644531" fill="#54596e"/><path d="m143.460938 234.261719c-5.835938 0-11.21875-3.753907-13.019532-9.621094-.527344-1.691406-12.542968-41.957031 8.417969-79.785156 14.292969-25.8125 39.933594-43.800781 76.199219-53.472657 7.335937-1.949218 14.773437 2.390626 16.714844 9.671876 1.941406 7.289062-2.386719 14.765624-9.671876 16.714843-28.699218 7.652344-48.628906 21.132813-59.222656 40.070313-15.398437 27.523437-6.417968 58.515625-6.324218 58.828125 2.144531 7.199219-1.921876 14.820312-9.113282 17-1.328125.398437-2.667968.59375-3.980468.59375zm0 0" fill="#ffd578"/><path d="m143.460938 234.261719v-6.824219c-2.914063-.015625-5.605469-1.867188-6.496094-4.800781l-.003906-.023438c-.144532-.433593-3.609376-11.976562-3.597657-27.882812 0-13.648438 2.511719-30.421875 11.46875-46.570313 6.636719-11.976562 15.851563-22.113281 27.808594-30.507812 11.953125-8.386719 26.671875-15.007813 44.179687-19.675782.617188-.164062 1.210938-.238281 1.785157-.242187 3.015625.011719 5.753906 1.996094 6.570312 5.078125l.234375 1.761719c-.003906 2.996093-2.011718 5.792969-5.082031 6.601562-14.917969 3.976563-27.785156 9.523438-38.453125 16.742188-10.660156 7.203125-19.105469 16.121093-24.953125 26.589843-7.839844 14.03125-9.878906 28.625-9.882813 40.222657.011719 13.609375 2.792969 23.25 2.960938 23.851562l.011719.035157c.195312.660156.285156 1.3125.285156 1.960937-.003906 2.925781-1.910156 5.679687-4.847656 6.554687l.019531-.003906c-.695312.207032-1.367188.300782-2.011719.304688v13.652344c1.984375.003906 3.988281-.289063 5.953125-.882813l.015625-.003906c8.847657-2.710938 14.527344-10.824219 14.523438-19.621094 0-1.945313-.277344-3.921875-.855469-5.863281l.011719.035156-.015625-.054688c-.226563-.78125-2.40625-8.980468-2.398438-19.964843-.003906-10.019531 1.800782-22.242188 8.144532-33.554688 4.746093-8.476562 11.5625-15.765625 20.6875-21.949219 9.121093-6.175781 20.5625-11.195312 34.332031-14.863281 9.160156-2.472656 15.207031-10.722656 15.203125-19.789062 0-1.75-.226563-3.527344-.691406-5.277344-2.441407-9.140625-10.679688-15.226563-19.769532-15.210937-1.765625-.003907-3.546875.230468-5.300781.699218-18.761719 5.003906-34.992187 12.210938-48.5 21.6875-13.507813 9.472656-24.257813 21.234375-31.914063 35.070313-10.378906 18.742187-13.175781 37.90625-13.175781 53.1875.011719 17.871093 3.785157 30.542969 4.210938 31.933593l-.007813-.023437c2.707032 8.804687 10.792969 14.457031 19.546875 14.445313v-6.824219zm0 0" fill="#54596e"/><path d="m370.292969 276.160156-42.972657-38.984375c-9.773437-8.875-10.503906-23.980469-1.640624-33.753906 8.867187-9.773437 23.980468-10.507813 33.753906-1.640625l42.972656 38.992188zm0 0" fill="#8065c4"/><path d="m370.292969 276.160156 4.589843-5.054687-42.972656-38.988281c-3.726562-3.386719-5.59375-7.984376-5.601562-12.652344.007812-4.117188 1.449218-8.175782 4.425781-11.453125 3.390625-3.734375 7.980469-5.601563 12.648437-5.609375 4.113282.007812 8.171876 1.445312 11.460938 4.429687l37.917969 34.40625-27.523438 30.332031 5.054688 4.589844 4.589843-5.054687-4.589843 5.054687 5.058593 4.589844 32.109376-35.386719c1.210937-1.332031 1.851562-3.125 1.765624-4.921875-.089843-1.792968-.902343-3.515625-2.230468-4.722656l-42.976563-38.996094c-5.859375-5.332031-13.296875-7.980468-20.636719-7.972656-8.339843-.007812-16.714843 3.410156-22.761718 10.082031-5.324219 5.851563-7.972656 13.285157-7.96875 20.632813-.007813 8.339844 3.410156 16.710937 10.078125 22.761718l42.976562 38.988282c1.347657 1.222656 3.09375 1.851562 4.914063 1.761718 1.824218-.085937 3.5-.878906 4.726562-2.230468zm0 0" fill="#54596e"/></svg>