<?xml version="1.0"?>
<svg xmlns="http://www.w3.org/2000/svg" viewBox="0 0 512 512" width="512" height="512"><g id="Filled_outline" data-name="Filled outline"><rect x="224" y="96" width="32" height="112" style="fill:#4d5e78"/><path d="M348.66,349.97,205.39,441.19,141.6,481.8a39.11,39.11,0,0,1-21.09,6.2,40.122,40.122,0,0,1-34.55-20.11c-11.67-19.82-5.68-45.72,13.38-57.86l174-110.78L306.4,278.2c19.06-12.14,43.97-5.91,55.64,13.91S367.72,337.83,348.66,349.97Z" style="fill:#f35244"/><path d="M348.66,349.97,205.39,441.19a457.891,457.891,0,0,0,67.95-141.94L306.4,278.2c19.06-12.14,43.97-5.91,55.64,13.91S367.72,337.83,348.66,349.97Z" style="fill:#e64c3f"/><path d="M24,56H88a0,0,0,0,1,0,0V96a24,24,0,0,1-24,24H24a0,0,0,0,1,0,0V56A0,0,0,0,1,24,56Z" style="fill:#feb784"/><path d="M88,56H40L24,80V48A24,24,0,0,1,48,24H88a16,16,0,0,1,16,16h0A16,16,0,0,1,88,56Z" style="fill:#7a432a"/><path d="M24,120v40h0a79.264,79.264,0,0,0,13.313,43.969L72,256l56-32L96,168V120Z" style="fill:#feb784"/><path d="M296,348.747h0A12.748,12.748,0,0,1,284.834,361.4L232,368l-16-96-64-8-8,16,24.971,24.971A24,24,0,0,1,176,321.941V384l21.791,5.448A13.477,13.477,0,0,1,208,402.523h0A13.477,13.477,0,0,1,194.523,416H136V328l-7.44-8.37L72,256l56-32,100.225,6.264a32,32,0,0,1,29.909,29.483L264,336h19.253A12.747,12.747,0,0,1,296,348.747Z" style="fill:#fec9a3"/><path d="M34.854,164.824,96,192l160-8V152H96L49.7,131.422a18.276,18.276,0,0,0-25.7,16.7h0A18.276,18.276,0,0,0,34.854,164.824Z" style="fill:#fec9a3"/><rect x="96" y="120" width="160" height="32" style="fill:#feb784"/><path d="M488,298.24v.43C488,400,328,488,328,488H128L320.25,365.66C384,328,365.45,265.66,336,232h85.68A66.319,66.319,0,0,1,488,298.24Z" style="fill:#348fd9"/><polygon points="152 264 144 280 161.6 297.6 128.56 319.63 72 256 128 224 192 228 192 269 152 264" style="fill:#fa6d00"/><path d="M224,216h32a7.979,7.979,0,0,0,5.657-2.343h0L315.314,160H496V144H315.314L261.657,90.343h0A7.979,7.979,0,0,0,256,88H224a8,8,0,0,0-8,8v16H91.7A31.8,31.8,0,0,0,96,96V62.624A24,24,0,0,0,88,16H48A32.036,32.036,0,0,0,16,48V160a87.278,87.278,0,0,0,14.653,48.407L49.344,236.44l13.312-8.876-18.69-28.032a71.132,71.132,0,0,1-10.8-26.7l59.583,26.481A8,8,0,0,0,96,200c.133,0,.267,0,.4-.01l8.424-.421,12.261,21.454L68.031,249.054a8,8,0,0,0-2.01,12.261L128,331.041V416a8,8,0,0,0,8,8h58.522a21.476,21.476,0,0,0,5.209-42.312L184,377.754V365.611l35.7-22.728,4.405,26.432a8,8,0,0,0,8.884,6.623l52.833-6.6A20.747,20.747,0,0,0,283.253,328H271.408l-1.323-17.2L310.7,284.947a30.982,30.982,0,0,1,24.071-4.086A32.321,32.321,0,0,1,355.042,296a65.687,65.687,0,0,1-.768,12.735c-3.24,20.183-16.055,37.016-38.089,50.033-.077.044-.152.09-.226.138L126.683,479.356a30.5,30.5,0,0,1-6.173.644,31.987,31.987,0,0,1-27.656-16.17c-9.489-16.113-4.651-37.222,10.783-47.052l12.66-8.06-8.594-13.5-12.661,8.061c-22.62,14.407-29.786,45.21-15.976,68.665A47.84,47.84,0,0,0,120.51,496H328a8.005,8.005,0,0,0,3.855-.99,523.568,523.568,0,0,0,81.384-57.631c23.767-20.6,42.748-41.439,56.417-61.942C487.137,349.216,496,323.387,496,298.665v-.433A74.422,74.422,0,0,0,421.683,224H336a8,8,0,0,0-6.021,13.269,109.236,109.236,0,0,1,19.379,32.088,47.833,47.833,0,0,0-10.853-4.052,46.844,46.844,0,0,0-36.4,6.146L268.7,292.719l-2.584-33.586a40.179,40.179,0,0,0-37.387-36.854l-95.918-5.994-10.065-17.612L216,194.01V208A8,8,0,0,0,224,216Zm197.683,24A58.4,58.4,0,0,1,480,298.242v.423C480,388.552,343.058,470.134,325.891,480H155.473L324.439,372.476c25.885-15.328,41.665-36.49,45.633-61.2,3.7-23.072-2.909-48.794-17.886-71.272ZM184,235.516v24.422l-31.008-3.876a8.019,8.019,0,0,0-8.147,4.36l-8,16a8,8,0,0,0,1.5,9.235l10.7,10.7-19.127,12.754L101.52,277.168,84.53,258.054l45.361-25.92Zm11.851,161.693A5.477,5.477,0,0,1,194.522,408H144V328a7.994,7.994,0,0,0-2.021-5.314l-1.332-1.5L160.581,307.9l2.732,2.733A15.888,15.888,0,0,1,168,321.941V384a8,8,0,0,0,6.06,7.761ZM184,346.644v-24.7a31.792,31.792,0,0,0-9.372-22.628l-7.371-7.371L153.734,278.42l2.89-5.779,34.384,4.3h0L209.09,279.2l7.755,46.537Zm66.158-86.284,5.865,76.253A8,8,0,0,0,264,344h19.253a4.747,4.747,0,0,1,.589,9.457l-45.213,5.652-14.737-88.424a8,8,0,0,0-6.9-6.623L200,261.938V236.515l27.726,1.733A24.107,24.107,0,0,1,250.158,260.36ZM232,200v-6.79l16-.8V200ZM88,139.69,61.7,128H88ZM104,128H248v16H104Zm160,60.686V115.314L300.687,152ZM232,104h16v8H232ZM32,112V82.422L44.281,64H80V96a16.019,16.019,0,0,1-16,16Zm0-64A16.019,16.019,0,0,1,48,32H88a8,8,0,0,1,0,16H40a8,8,0,0,0-6.656,3.562L32,53.578Zm6.1,109.514a10.288,10.288,0,0,1-6.1-9.391,10.277,10.277,0,0,1,14.45-9.391l46.3,20.579A8.007,8.007,0,0,0,96,160H248v16.39L97.506,183.915Z"/><path d="M229.409,474.881c69.7-42.6,155.73-99.27,169.746-127.3,25.913-51.827.346-86.91-.755-88.378l-12.83,9.56c.851,1.165,20.594,29.024-.725,71.662-9.334,18.669-70.561,63.83-163.78,120.807Z"/><path d="M445.641,280.183c-2.448-12.052-6.18-19.2-6.6-19.976l-14.106,7.554a64.284,64.284,0,0,1,5.023,15.6Z"/><path d="M397.1,374.653l10.771,11.83c12.718-11.579,20.848-20.865,24.856-28.39,10.965-20.6,15.954-41.734,14.824-62.83l-15.977.855c.971,18.147-3.392,36.468-12.971,54.454C416.483,354.559,411.029,361.972,397.1,374.653Z"/><path d="M280.177,461.06l8.83,13.343c30.9-20.446,74.311-50.308,105.672-76.462l-10.248-12.287C353.633,411.338,310.738,440.837,280.177,461.06Z"/></g></svg>
