<svg height="512" viewBox="0 0 512 512" width="512" xmlns="http://www.w3.org/2000/svg"><g id="Filled_outline" data-name="Filled outline"><path d="m487.75 449.49a27.269 27.269 0 0 1 -5.77 13.42 26.122 26.122 0 0 1 -11.78 8.3 305.67 305.67 0 0 1 -143.59 13.65l-156.94-22.68q-14.79-2.13-29.25-5.7a306.02 306.02 0 0 1 -40.98-13.17 310.915 310.915 0 0 1 -64.14-34.95 27.1 27.1 0 0 1 -11.3-22.12 27.6 27.6 0 0 1 .25-3.73 27.269 27.269 0 0 1 5.77-13.42 26.122 26.122 0 0 1 11.78-8.3 305.67 305.67 0 0 1 143.59-13.65l123.01 17.78 33.93 4.9a308.81 308.81 0 0 1 134.37 53.82 27.182 27.182 0 0 1 11.05 25.85z" fill="#348fd9"/><path d="m487.75 449.49a27.269 27.269 0 0 1 -5.77 13.42 26.122 26.122 0 0 1 -11.78 8.3 305.67 305.67 0 0 1 -143.59 13.65l-156.94-22.68q-14.79-2.13-29.25-5.7c58.26-18.86 116.36-48.3 167.98-91.56l33.93 4.9a308.81 308.81 0 0 1 134.37 53.82 27.182 27.182 0 0 1 11.05 25.85z" fill="#3086cd"/><path d="m400 48-28.25 119.28-43.75 184.72-184 40s1.34-26.84 17.21-72.82c22.89-66.29 75.98-172.37 198.79-295.18z" fill="#4db7e5"/><path d="m371.75 167.28-43.75 184.72-184 40s1.34-26.84 17.21-72.82c76.86-28.85 151.92-76.96 210.54-151.9z" fill="#4aafdb"/><path d="m433.398 294.995v-56l-40.078-8-8.016 32 8.016 8v16z" fill="#fec9a3"/><path d="m433.4 239-40.078-8-2.264-2.259a11.25 11.25 0 0 1 -2.114-13 11.3 11.3 0 0 1 13.664-5.649l21.8 7.254a15.506 15.506 0 0 1 8.992 21.654z" fill="#7a432a"/><path d="m421.49 377.5-4.12 5.49-56.11-8 9.76-16.25 14.28-23.75-16.03-24-40.08 32h-40.07l-8.02-40-8.01-8 8.01-24 24.05 8 8.01 40 44.06-31.41a32.1 32.1 0 0 1 26.42-5l49.76 12.41 3.32 23.2c.19 1.33.35 2.65.46 3.98a79.863 79.863 0 0 1 -15.69 55.33z" fill="#fec9a3"/><path d="m421.49 377.5-4.12 5.49-56.11-8 9.76-16.25a457.93 457.93 0 0 0 66.16-36.57 79.863 79.863 0 0 1 -15.69 55.33z" fill="#fec093"/><path d="m376.286 384-48.094-8 3.007 47-13.839.657a10.342 10.342 0 0 0 -9.373 7.2 10.326 10.326 0 0 0 8.852 13.385l48.426 4.758-7.013-45 19.037 6z" fill="#feb784"/><path d="m417.366 382.99-11.923 15.87a32.077 32.077 0 0 1 -31.932 12.18l-49.611-9.91-10.741-2.14-40.078 40-32.623-5.42a13.38 13.38 0 0 1 2.2-26.58h22.4l16.111-26.79a24.043 24.043 0 0 1 23.275-11.5l26.823 2.97 29.978 3.32z" fill="#fec9a3"/><path d="m417.366 382.99-11.923 15.87a32.077 32.077 0 0 1 -31.932 12.18l-49.611-9.91 7.375-29.46 29.978 3.32z" fill="#f35244"/><path d="m146.845 418.569 3.973-19.864 127.156-27.643a31.736 31.736 0 0 0 -3.753 5.021l-13.749 22.907h-17.831a21.381 21.381 0 0 0 -3.515 42.472l32.561 5.42a8.085 8.085 0 0 0 1.313.108 8 8 0 0 0 5.657-2.343l36.974-36.974 6.457 1.292.41 6.423-5.7.272a18.325 18.325 0 0 0 -.914 36.542l48.33 4.75c.261.026.522.038.783.038a8 8 0 0 0 7.9-9.23l-4.6-29.547 3.352.671a40.169 40.169 0 0 0 39.851-15.225l11.9-15.867 4.118-5.49a87.428 87.428 0 0 0 16.715-65.244l-3.233-22.641v-53.758a23.5 23.5 0 0 0 -14.439-30.911l-21.761-7.254a19.261 19.261 0 0 0 -20.644 30.892l-6.916 27.664a8 8 0 0 0 2.1 7.6l5.66 5.65v.451a39.929 39.929 0 0 0 -31.853 5.766l22.417-94.658 32.22-136.019a8 8 0 0 0 -3.668-8.7l-40-24a8 8 0 0 0 -9.773 1.2 1091.024 1091.024 0 0 0 -79.684 88.583 865.4 865.4 0 0 0 -62.63 88.593c-18.238 29.75-34.168 59.387-45.926 88.629-5.436 13.519-15.5 40.264-20.428 57.931-7.859 28.152-9.383 45.379-9.625 48.88l-4.9 24.472zm12.577-66.022c8.289.491 16.611 1.322 24.823 2.511l55.28 7.988-86.274 18.754a291.747 291.747 0 0 1 6.171-29.253zm155.143 38.6a8.008 8.008 0 0 0 -7.222 2.188l-37.089 37.09-28.5-4.743a5.382 5.382 0 0 1 .882-10.69h22.364a8 8 0 0 0 6.859-3.883l16.08-26.791a16.053 16.053 0 0 1 15.49-7.665l17.67 1.961-3.293 13.181zm40.943 48.874-38.062-3.741a2.343 2.343 0 0 1 -2.1-2.308 2.273 2.273 0 0 1 .106-.692 2.324 2.324 0 0 1 2.116-1.636l13.81-.661a8 8 0 0 0 7.6-8.5l-.655-10.266 13.265 2.655zm43.19-45.957a24.085 24.085 0 0 1 -23.9 9.133l-41.287-8.259 3.633-14.543 22.846 2.535 42.5 6.071zm-.041-128.729-4.8-4.8 5.051-20.2 26.092 5.217v39.2l-24-6v-7.762a8 8 0 0 0 -2.343-5.657zm-2.87-46.022a3.282 3.282 0 0 1 3.951-1.637l21.763 7.254a7.407 7.407 0 0 1 4.565 4.252c.04.095.078.191.113.288l-29.239-5.85-.542-.541a3.259 3.259 0 0 1 -.611-3.768zm-14.387 71.026 44.446 11.111 2.553 17.871a71.534 71.534 0 0 1 -13.681 53.379l-1.273 1.7-51.313-7.331c-.083-.011-.166-.022-.249-.031l-43.3-4.805 11.117-2.417a8 8 0 0 0 6.085-5.972l1.764-7.443 29.637-23.71 8.351 12.528-12.4 20.664 13.72 8.232 15-25.006a8 8 0 0 0 -.2-8.553l-16-24a8 8 0 0 0 -11.657-1.809l-37.809 30.247h-30.631l-6.714-33.569a8.012 8.012 0 0 0 -2.188-4.088l-4.5-4.5 3.907-11.72 12 4 7.09 35.448a8 8 0 0 0 12.495 4.935l43.976-31.41a23.971 23.971 0 0 1 19.774-3.751zm-62.977 14.954-2.381-11.9a162.287 162.287 0 0 0 20.738-13.166l-3.409 14.393zm42.832-271.211 29.612 17.768-10.518 44.407-81.417 6.262c19.151-22.972 40.04-45.919 62.323-68.437zm-76.265 85.557 91.488-7.037-15.172 64.055-126.925 13.364a864.025 864.025 0 0 1 50.609-70.382zm-61.36 87.6 133.77-14.082-15.17 64.048-.494.064-.149.018-54.912 7.165-3.142-1.048a8 8 0 0 0 -8.773 2.6l-88.306 11.523a659.559 659.559 0 0 1 37.176-70.286zm41.781 85.223a7.966 7.966 0 0 0 -.305 1.31c-23.289 3.719-44.887 1.315-61.389-2.364l64.867-8.465zm-88.611 7.789a195.264 195.264 0 0 0 64.591 11.378 164.952 164.952 0 0 0 32.543-3.185l7.223 36.119a8 8 0 0 0 7.843 6.431h5.966l-10.77 2.341-97.661-14.113c-7.49-1.084-15.069-1.878-22.637-2.413 3.627-11.855 7.935-24.085 12.902-36.558z"/><path d="m481.324 417.111a321.167 321.167 0 0 0 -40.176-24.245l-7.24 14.268a305.214 305.214 0 0 1 38.169 23.035 19.356 19.356 0 0 1 3.685 27.708 18.144 18.144 0 0 1 -8.173 5.771 299.176 299.176 0 0 1 -139.834 13.294l-156.943-22.68a298.835 298.835 0 0 1 -68.4-18.379 303.342 303.342 0 0 1 -62.488-34.049 19.081 19.081 0 0 1 -7.924-15.594 19.329 19.329 0 0 1 4.238-12.117 18.144 18.144 0 0 1 8.173-5.771 297.99 297.99 0 0 1 83.947-16.047l-.716-15.985a314 314 0 0 0 -88.454 16.909 34.159 34.159 0 0 0 -15.4 10.84 35.306 35.306 0 0 0 -7.468 17.364 35.685 35.685 0 0 0 -.32 4.807 35.1 35.1 0 0 0 14.676 28.649 319.3 319.3 0 0 0 65.789 35.846 314.841 314.841 0 0 0 72.06 19.363l156.942 22.68a311.656 311.656 0 0 0 44.563 3.191 315.5 315.5 0 0 0 102.782-17.2 34.159 34.159 0 0 0 15.4-10.84 35.355 35.355 0 0 0 -6.885-50.82z"/></g></svg>